<?xml version="1.0" encoding="utf-8"?>
<svg viewBox="0 0 1024 1024" xmlns="http://www.w3.org/2000/svg">
  <rect width="1024" height="1024" style=""/>
  <path d="M 487 721.125 L 487 674.375 C 450.5 672.708 415.333 664.542 381.5 649.875 L 381.5 566.875 C 400.833 576.708 421.833 584.915 444.5 591.495 C 467.167 598.082 487.083 601.375 504.25 601.375 C 518.417 601.375 528.793 599.665 535.38 596.245 C 541.96 592.832 545.25 587.125 545.25 579.125 C 545.25 573.625 542.877 568.958 538.13 565.125 C 533.377 561.292 525.46 556.958 514.38 552.125 C 503.293 547.292 488.333 541.458 469.5 534.625 C 448.333 526.792 431.25 517.998 418.25 508.245 C 405.25 498.498 395.793 487.582 389.88 475.495 C 383.96 463.415 381 448.375 381 430.375 C 381 402.875 389.833 381.375 407.5 365.875 C 425.167 350.375 451.667 340.792 487 337.125 L 487 302.875 L 538.75 302.875 L 538.75 336.625 C 571.917 338.458 605.333 346.625 639 361.125 L 609.25 432.375 C 574.417 416.708 543 408.875 515 408.875 C 501.667 408.875 492.293 410.498 486.88 413.745 C 481.46 416.998 478.75 421.792 478.75 428.125 C 478.75 433.625 480.71 438.165 484.63 441.745 C 488.543 445.332 495.333 449.332 505 453.745 C 514.667 458.165 528.083 463.292 545.25 469.125 C 580.083 481.458 605.083 495.498 620.25 511.245 C 635.417 526.998 643 547.292 643 572.125 C 643 600.125 634.127 622.875 616.38 640.375 C 598.627 657.875 572.75 668.708 538.75 672.875 L 538.75 721.125 L 487 721.125 Z M 514.25 325.875 Z" style="fill: rgb(247, 255, 0); white-space: pre;"/>
</svg>